# xmcd
#
# Track frame offsets:
#	150
#	17429
#	32304
#	47642
#	64396
#	77437
#	94052
#	107297
#	122627
#	135052
#	147577
#	162694
#	177737
#	191821
#	205031
#	220112
#	235401
#	258070
#	276728
#
# Disc length: 3952 seconds
#
# Revision: 0
# Processed by: cddbd v1.5.2PL0 Copyright (c) Steve Scherf et al.
# Submitted via: audiograbber 1.83.01
#
DISCID=0b0f6e13
DTITLE=Keith Jamieson Ft Caitlyn Jane Jamieson - Plain and Simple Drifter
DYEAR=2015
DGENRE=Country
TTITLE0=Plain and Simple Drifter
TTITLE1=Westwood Swaggie
TTITLE2=Don't Sell Australia Out
TTITLE3=Old Wellerwang
TTITLE4=Tipperary Swinging Bridge
TTITLE5=One Last Waltz With You
TTITLE6=Baby Boomin' Gray Nomads
TTITLE7=West Of Winton
TTITLE8=Artesian Tom
TTITLE9=My Mum and Dad
TTITLE10=The Breaker
TTITLE11=I'm Workin' On Brown Time
TTITLE12=Country Hat
TTITLE13=Ghost Of Three Rivers
TTITLE14=Thumb Pick Dinosaur
TTITLE15=Thirty Sows and Pigs
TTITLE16=Currawong
TTITLE17=We've Done Us Proud
TTITLE18=Heartache and Destruction
EXTD=
EXTT0=
EXTT1=
EXTT2=
EXTT3=
EXTT4=
EXTT5=
EXTT6=
EXTT7=
EXTT8=
EXTT9=
EXTT10=
EXTT11=
EXTT12=
EXTT13=
EXTT14=
EXTT15=
EXTT16=
EXTT17=
EXTT18=
PLAYORDER=
